<?xml version="1.0" encoding="utf-8"?>
<!-- Generator: Adobe Illustrator 25.4.1, SVG Export Plug-In . SVG Version: 6.00 Build 0)  -->
<svg version="1.1" id="Layer_1" xmlns="http://www.w3.org/2000/svg" xmlns:xlink="http://www.w3.org/1999/xlink" x="0px" y="0px"
	 viewBox="0 0 1233 867" style="enable-background:new 0 0 1233 867;" xml:space="preserve">
<style type="text/css">
	.st0{fill:#FFFFFF;}
	.st1{fill-rule:evenodd;clip-rule:evenodd;fill:#10102E;}
	.st2{fill-rule:evenodd;clip-rule:evenodd;fill:#00BEED;}
</style>
<rect class="st0" width="1233" height="867"/>
<g>
	<path class="st1" d="M808.07,415.74h42.9l-22.07-35.9L808.07,415.74z M761.87,451.48h23.22l12.43-20.5h61.92
		c2.22,3.29,4.2,6.75,6.42,10.13l4.86,7.58c0.61,0.88,1.14,1.82,1.56,2.8h23.55c-1.07-1.98-2.55-4.03-3.71-6.01l-11.45-18.03
		c-5.02-8.23-9.96-15.89-15.07-23.96c-5.85-9.39-12.76-21-18.77-30.05c-3.79-5.68-7.16-13.5-16.47-13.5
		c-6.45-1.34-13.05,1.53-16.47,7.16c-2.96,3.95-15.23,24.21-18.94,29.97l-32.2,51.3C762.35,449.35,762.05,450.4,761.87,451.48z"/>
	<path class="st1" d="M646.43,416.32h42.9l-22.07-35.82L646.43,416.32z M601.23,451.48h23.22c1.89-3.46,4.36-7,6.42-10.37l4.78-7.74
		c0.91-1.65,0.91-2.39,1.98-2.39h60.6c1.4,0,5.93,8.23,6.92,9.88l6.5,10.62h23.63c-2.06-3.71-12.27-19.51-15.07-24.04
		c-5.02-8.23-9.88-15.89-14.99-23.96l-11.28-18.03c-2.63-4.94-10.37-16.88-13.34-20.67c-0.37-0.43-0.78-0.81-1.24-1.15
		c-3.43-3.18-8.16-4.55-12.76-3.71c-10.13,0-14.41,10.62-19.93,19.19l-7.49,11.94c-2.72,4.12-4.94,8.23-7.66,12.19l-15.15,23.96
		c-1.32,2.06-2.55,3.95-3.79,6.01c-1.24,2.06-2.47,3.87-3.79,6.01L601.23,451.48z"/>
	<path class="st1" d="M484.47,397.95l5.43,11.45l22.89-13.01c14.92-8.22,30.58-15.03,46.77-20.34c10.87-3.21,19.19-3.87,27.25,4.2
		c0.85,0.95,1.62,1.97,2.31,3.05c7.16,10.7,4.86,29.89-0.58,40.59c-1.86,4.26-4.45,8.16-7.66,11.53c-2.72,3.29-1.07,1.24-3.38,3.38
		c-2.34,2.05-4.94,3.76-7.74,5.11c-10.62,3.7-21.71,5.92-32.94,6.59c0.61-1.63,1.08-3.31,1.4-5.02l-26.27,5.11
		c-3.01,0.75-6.06,1.31-9.14,1.65l1.4,11.77c4.53,0,8.23,0,12.43,0c22.07,0,53.77-3.13,70.57-15.32l4.36-3.38
		c2.41-2.09,4.64-4.38,6.67-6.83c14.95-17.5,20.7-41.07,15.48-63.48c-3.83-13.5-16.74-22.36-30.71-21.08
		c-5.33,0.09-10.63,0.78-15.81,2.06l-10.29,2.88l-3.46,1.24c-18.49,7.3-36.2,16.43-52.86,27.25c-4.86,2.88-12.43,8.23-16.47,10.29"
		/>
	<path class="st1" d="M711.97,379.1h26.27v72.38h20.26V379.1h27.58c0.41-1.81,10.13-15.4,10.13-16.47v-0.99h-94.94
		c0.67,1.59,1.56,3.09,2.63,4.45l6.75,10.7C711.24,377.47,711.69,378.25,711.97,379.1"/>
	<path class="st1" d="M494.51,420.19c0,2.31,6.26,19.35,6.42,21.57l9.88-4.28c9.02-3.2,18.2-5.95,27.5-8.23
		c1.96-0.64,3.97-1.11,6.01-1.4l5.68-28.65c-14.88,2.67-29.3,7.47-42.82,14.24l-12.68,6.5"/>
	<path class="st2" d="M564.5,254.68v58.21c0,1.56,1.15,2.31,2.22,2.96s2.14,1.24,3.46,1.98l47.02,27.09c2.31,0,2.14-0.41,4.36-1.73
		l47.26-27.25c1.15-0.66,2.39-1.15,2.39-3.05v-58.21c0-1.81-1.07-2.31-2.22-2.96l-3.38-1.98l-27.01-15.64
		c-1.73-0.99-19.02-11.45-20.5-11.45c-1.48,0-5.43,2.47-7.58,3.62l-3.21,1.89c-12.35,6.92-24.7,14.66-37.14,21.49
		c-2.55,1.4-5.85,2.63-5.85,5.02 M558.16,251.31v64.97c0.1,1.49,1.07,2.78,2.47,3.29c1.48,0.74,2.39,1.4,3.87,2.22l52.7,30.14
		c2.63,0,2.39-0.41,4.86-1.81l52.7-30.47c1.32-0.74,2.72-1.32,2.72-3.38v-64.97c0-1.98-1.15-2.55-2.47-3.29l-3.79-2.22l-30.14-17.37
		c-7.38-4.6-14.99-8.8-22.81-12.6c-2.8,0-6.01,2.72-8.23,4.03l-3.62,2.06c-13.75,7.66-27.83,16.47-41.17,23.96
		c-3.21,1.4-6.92,2.88-6.92,5.43H558.16z"/>
	<path class="st2" d="M564.5,499.32v58.3c0.12,1.31,0.98,2.44,2.22,2.88c1.32,0.74,2.14,1.32,3.46,1.98l47.02,27.09
		c2.31,0,2.14,0,4.36-1.65l47.26-27.25c1.15-0.74,2.39-1.24,2.39-3.05v-58.3c0-1.73-1.07-2.31-2.22-2.96l-3.38-1.98l-27.01-15.56
		c-6.63-4.17-13.47-7.99-20.5-11.45c-2.55,0-5.43,2.47-7.58,3.62c-2.14,1.15-2.06,1.24-3.21,1.89
		c-12.35,6.83-24.7,14.66-37.14,21.41c-2.55,1.4-5.85,2.63-5.85,5.02 M558.33,495.77v65.05c0.13,1.46,1.1,2.71,2.47,3.21
		c1.48,0.82,2.39,1.48,3.87,2.22l52.53,30.38c2.63,0,2.39-0.49,4.86-1.89l52.78-30.38c1.32-0.82,2.72-1.32,2.72-3.38v-65.21
		c0-1.98-1.15-2.55-2.47-3.29l-3.79-2.22l-30.14-17.37c-7.4-4.66-15.04-8.92-22.89-12.76c-2.8,0-6.01,2.8-8.23,4.03l-3.62,2.14
		c-13.75,7.66-27.83,16.47-41.17,23.88C562.03,491.9,558.33,493.3,558.33,495.77z"/>
	<path class="st2" d="M510.9,477.91c7.64,0.79,15.34,0.79,22.97,0c5.04-0.53,10.01-1.61,14.82-3.21
		c-17.28,21.15-38.19,39.05-61.76,52.86c11.52-14.5,19.71-31.37,23.96-49.4 M504.15,470.41c-1.04,8.43-3.03,16.72-5.93,24.7
		c-1.15,3.38-4.12,9.39-5.6,12.52c-5.21,9.67-11.13,18.95-17.7,27.75c-0.66,0.91-0.74,0.66-1.07,1.98
		c12.34-2.63,23.96-7.88,34.09-15.4c9.8-6.62,18.98-14.11,27.42-22.4c0.99-0.91,1.56-1.15,2.55-2.14c0.99-0.99,1.65-1.56,2.47-2.63
		l9.3-10.54c3.05-3.67,5.8-7.58,8.23-11.69c1.4-2.31,2.39-4.28,3.54-6.59l-12.93,2.88c-7.16,1.48-14.43,2.33-21.74,2.55h-3.95
		c-3.84,0.29-7.69,0.29-11.53,0c-2.36-0.54-4.76-0.95-7.16-1.24V470.41z"/>
	<path class="st2" d="M468.99,397.38c0,0-6.42-30.71,2.55-41.17c8.98-10.46,18.69-13.59,25.53-8.65c6.83,4.94,9.88,9.47,4.2,15.89
		c-11.2,12.6-21.9,19.76-32.44,34.09 M438.85,323.44c0,6.92,10.95,2.63,24.7,7.16c2.58,0.94,5,2.27,7.16,3.95
		c2.98,2.25,5.74,4.79,8.23,7.58c0.74,0.99,1.24,1.24,1.89,2.14c-1.52,0.68-2.98,1.47-4.36,2.39c-3.74-4.2-8.1-7.81-12.93-10.7
		c-8.41-4.09-17.78-5.77-27.09-4.86c-4.86,0-7.58,4.78-3.21,6.59c1.4,0.66,2.14,0,3.79,0c10.68-2.38,21.86-0.13,30.8,6.18
		c1.95,1.4,3.65,3.13,5.02,5.11c-3.16,3.37-5.6,7.35-7.16,11.69c-3.41,11.44-4,23.53-1.73,35.24l2.14,11.61c0,0,6.83-9.3,8.23-11.03
		l22.56-21.49c7.41-6.26,15.97-14.41,10.46-25.2c-0.87-1.71-2.01-3.27-3.38-4.61c-3.88-3.74-9.21-5.58-14.57-5.02
		c-2.19,0.25-4.33,0.83-6.34,1.73c-5.44-9.42-14.28-16.4-24.7-19.51c-4.26-1.23-8.66-1.92-13.09-2.06c-2.22,0-6.42,0.74-6.42,2.55
		V323.44z"/>
	<path class="st2" d="M417.94,495.03v63.32c0,3.54,2.31,4.03,5.76,6.01l7.74,4.45c2.55,1.48,4.94,2.96,7.66,4.45l34.34,19.84
		c6.01,3.62,4.69,1.73,15.56-4.12l45.04-26.02c3.13-1.81,3.13-1.73,3.13-4.28c0-1.07-1.73-2.39-3.05-2.39
		c-1.36,0.26-2.64,0.85-3.71,1.73l-10.21,5.93c-4.69,2.72-9.22,5.11-13.67,7.82l-6.83,3.95c-6.42,3.87-14.41,8.23-20.5,11.86
		c-2.22,1.4-2.47,0-7-2.31c-2.31-1.24-4.45-2.63-6.83-3.95l-27.34-15.81c-2.39-1.4-4.45-2.47-6.83-3.95
		c-2.39-1.48-4.61-2.72-6.83-3.87v-61.92c1.24-0.45,2.41-1.09,3.46-1.89l3.71-2.06l45.7-26.76c3.21-1.73,3.05-1.48,3.05-4.36
		c0-1.24-1.98-2.55-3.54-2.14c-1.56,0.41-25.61,14.49-28.49,16.47c-5.35,3.21-10.62,6.01-15.97,9.3c-2.8,1.65-5.43,2.96-8.23,4.61
		l-4.03,2.39c-1.6,0.64-2.59,2.24-2.47,3.95"/>
	<path class="st2" d="M417.94,251.96v63.32c0,2.47,0.99,4.03,3.38,4.03s3.05-2.47,3.05-5.43v-61.26c1.48,0,29.31-16.47,32.94-18.94
		l20.09-11.45c0.66,0,17.62,10.05,19.76,11.2c2.14,1.15,4.45,2.63,6.83,3.95c4.2,2.31,24.7,14.82,26.84,15.23
		c0,2.22,0,62.99,0,64.55c0.51,1.6,2.23,2.49,3.83,1.98c1.14-0.36,1.96-1.36,2.1-2.55v-65.87c0-2.39-3.46-3.71-6.42-5.35
		c-14-8.23-31.37-17.79-44.79-25.94c-2.49-1.78-5.32-3.01-8.32-3.62c-0.74,0-26.02,14.9-30.22,17.21l-22.64,13.09
		c-3.54,2.06-6.09,2.72-6.09,6.01"/>
	<path class="st2" d="M348.93,371.19v65.3c0,2.63,3.46,3.62,6.34,5.43l37.79,21.82c2.47,1.32,5.02,2.8,7.49,4.28
		c4.69,2.88,7.25,5.02,9.96,3.38l50.97-29.4c2.55-1.4,6.67-3.21,6.67-5.52c-0.09-1.77-1.6-3.14-3.37-3.05c0,0-0.01,0-0.01,0
		c-7.27,3.57-14.37,7.5-21.24,11.77l-28.16,16.47l-3.38,1.98c-1.15,0.84-2.43,1.48-3.79,1.89l-16.47-9.47
		c-11.94-6.67-25.28-15.07-36.81-21.16v-62.08l7-3.95c11.61-6.42,24.21-14.33,35.82-20.75l7.25-4.12c2.55-1.56,8.23-3.95,5.52-7.41
		c-2.72-3.46-5.68,0.58-9.72,2.8l-49.4,28.41c-1.32,0.82-2.8,1.32-2.8,3.38"/>
	<path class="st2" d="M488.67,193.09c0,2.88,3.05,3.79,6.09,5.6c11.94,7.25,26.02,14.74,38.04,21.98
		c4.98,3.07,10.15,5.82,15.48,8.23c2.06,0,26.84-14.99,30.63-17.13l14.9-8.23l3.71-2.06l3.79-2.22c2.8-1.56,6.5-3.13,6.5-5.6
		c0.05-1.64-1.24-3-2.88-3.05c-0.03,0-0.06,0-0.08,0c-1.73,0-26.93,15.07-28.33,15.81l-28.24,16.47l-14-8.23
		c-4.78-2.88-9.3-5.27-14.08-8.23c-2.72-1.65-27.34-15.89-28.16-15.89c-1.63-0.03-3.06,1.11-3.38,2.72"/>
	<path class="st2" d="M488.67,612.86c0.17,0.76,0.47,1.49,0.91,2.14c0.67,0.62,1.56,0.94,2.47,0.91c1.15,0,30.05-17.21,34.75-19.76
		l21.16-12.19c4.95,2.27,9.74,4.88,14.33,7.82l21.08,12.19c2.55,1.4,4.61,2.72,7.08,4.12l7,4.03c2.3,1.57,4.79,2.84,7.41,3.79
		c2.31,0,5.27-3.46,0.58-6.34l-37.63-21.49c-6.32-4.1-12.92-7.73-19.76-10.87c-5.28,2.4-10.4,5.15-15.32,8.23
		c-5.11,3.05-10.05,5.68-15.15,8.73l-26.43,15.23c-1.15,0.66-2.72,1.56-2.72,3.38"/>
	<path class="st2" d="M337.24,461.44c0,2.47,3.21,3.79,5.85,5.19l46.93,27.17c1.27,0.81,2.62,1.47,4.03,1.98v60.93
		c0,4.28,0,5.76,3.71,5.76c1.16-0.33,2.06-1.23,2.39-2.39v-65.87c0-2.39-3.62-3.87-6.42-5.43l-3.62-2.06l-19.02-11.12
		c-5.02-3.05-10.05-5.76-15.15-8.81l-3.62-2.06c-3.76-2.43-7.7-4.58-11.77-6.42c-1.6,0.18-2.86,1.45-3.05,3.05L337.24,461.44z"/>
	<path class="st2" d="M394.06,314.63c-2.31,1.15-4.78,2.63-7.08,4.03l-7.16,4.2c-2.55,1.48-4.94,2.72-7.33,4.2l-32.94,18.86
		c-1.25,0.55-2.15,1.7-2.39,3.05l0,0c0.35,1.79,2.08,2.95,3.86,2.61c0.55-0.11,1.06-0.35,1.49-0.71l13.26-7.66
		c13.01-7.82,27.83-15.97,41.17-23.8c1.4-0.82,2.88-1.15,2.88-3.21v-65.87c-0.49-1.66-2.23-2.6-3.89-2.11
		c-0.38,0.11-0.74,0.3-1.05,0.55c-1.4,1.4-0.74,6.18-0.74,8.73L394.06,314.63z"/>
</g>
</svg>
