<?xml version="1.0" encoding="utf-8"?>
<!-- Generator: Adobe Illustrator 25.4.1, SVG Export Plug-In . SVG Version: 6.00 Build 0)  -->
<svg version="1.1" id="Layer_1" xmlns="http://www.w3.org/2000/svg" xmlns:xlink="http://www.w3.org/1999/xlink" x="0px" y="0px"
	 viewBox="0 0 1233 867" style="enable-background:new 0 0 1233 867;" xml:space="preserve">
<style type="text/css">
	.st0{fill:#FFFFFF;}
	.st1{fill:#013A71;}
</style>
<rect class="st0" width="1233" height="867"/>
<path class="st1" d="M796.98,539.85c3.25,4.43,3.84,9.74,4.43,15.06c1.18,10.92-1.77,20.37-10.33,27.16
	c-3.84,2.95-7.97,4.13-12.7,4.72c-4.43,0.6-8.57-0.3-12.7-1.77c-2.06-0.6-2.36-0.3-2.66,1.77c-0.6,14.76-4.13,28.94-10.33,42.51
	c-5.91,12.99-14.46,24.21-25.39,33.36c-18.6,15.94-40.45,23.61-64.36,26.28c-15.64,1.77-31.3,0.6-46.64-2.66
	c-14.16-2.66-27.46-7.97-40.15-14.46c-5.91-2.95-11.81-6.2-16.54-10.92c5.91,2.06,11.51,4.13,17.71,5.02
	c4.13,0.6,8.27,0.88,12.4,0.88c5.31,0.3,10.33,0.3,15.36-0.6c20.07-3.54,36.61-13.28,49.01-29.52
	c7.67-10.33,12.99-21.85,14.17-34.83c1.48-13.88-1.18-27.16-8.27-38.97c-3.54-5.91-7.67-11.81-12.7-17.12
	c-4.13-4.43-7.97-9.15-12.7-13.28c-12.4-11.81-25.98-22.15-39.27-32.48c-12.1-9.45-24.21-18.89-35.73-29.22
	c-6.79-6.2-13.28-12.99-19.49-20.07c-8.57-9.74-15.64-20.37-21.55-31.88c-0.3-0.3-0.6-0.88-1.18-1.77c-0.3,1.77-0.6,3.54-1.18,5.31
	c-0.88,4.13-1.77,7.97-1.48,11.81V443c1.18,13.58,6.49,25.09,14.76,36.01c8.85,11.81,19.78,20.37,32.48,27.46
	c6.2,3.54,12.99,6.49,19.78,8.57c6.79,2.06,13.58,4.43,20.96,4.72c-4.13,5.91-16.24,11.51-40.15,12.99c0.3,2.36,2.06,3.84,2.95,5.61
	c10.33,18.3,15.06,37.49,5.31,57.86c-4.13,9.15-11.22,15.94-19.49,21.55c-8.85,6.2-18.89,8.85-29.22,10.63
	c-11.51,1.77-22.73,0-33.65-3.84c-4.43-1.48-8.57-3.84-12.7-6.2c-7.67-4.43-13.88-10.63-19.19-17.71
	c-7.97-10.33-12.7-22.43-15.94-36.31c5.61,7.67,12.7,11.22,20.67,12.1c7.39,0.88,14.46,0.3,20.96-2.95
	c8.57-4.13,14.17-13.28,10.63-25.39c-2.66-8.85-6.79-16.83-10.92-25.09c-6.49-13.28-13.28-26.28-18.3-40.15
	c-3.84-10.33-7.39-20.67-9.74-31.59c-2.36-9.74-3.84-19.78-3.84-29.52c0-15.64,3.25-30.7,12.4-43.98
	c2.95-4.43,6.49-8.27,10.33-11.81c2.36-2.06,1.48-2.66-0.6-3.84c-4.72-2.66-8.27-6.79-12.4-10.04c-1.77-1.18-3.25-5.02-4.72-7.67
	c-3.25-5.61-5.02-12.1-7.09-18.3c-0.3-1.18-0.3-2.66,0-4.13c0-0.88,0.3-2.06,0.3-2.95c-0.6-15.64,5.61-28.64,16.24-39.56l0.3-0.3
	c0.3-0.6,0.88-0.88,1.77-0.6c0.6,6.2,2.06,11.81,5.91,17.12c7.09,9.45,23.61,10.33,31.3,1.18c1.77-2.06,3.84-3.84,5.02-6.2
	c5.31-10.33,6.49-21.25,5.31-32.48c-0.3-3.54-0.88-7.09-1.18-10.33c58.74-16.54,117.8-17.71,177.14-3.84v-1.18
	c-5.31-1.77-10.92-3.84-16.24-5.61c-8.85-2.66-17.71-5.02-26.86-6.49c-18.3-3.25-36.91-4.13-55.8-3.25
	c-9.15,0.3-18.01,0.88-26.86,2.36c-5.31,0.88-10.92,1.77-16.24,2.36c-7.39,0.88-14.76,2.36-22.15,3.54c-2.95,0.6-6.2,0.88-9.15,2.36
	c-3.84,2.06-7.09,0-8.57-4.43c-2.66-6.79-5.61-13.28-7.97-20.07c-2.66-7.97-5.91-15.64-8.57-23.61
	c-3.84-10.33-7.67-20.67-11.51-30.7c-0.88-2.36-0.3-2.95,1.77-2.36c11.51,2.06,21.25,6.79,29.22,15.36
	c1.18,1.18,1.18,2.66,0.88,4.13c-1.18,5.91-1.48,12.1-0.6,18.3c1.18,6.49,5.02,11.51,10.33,15.36c6.49,4.43,13.88,6.2,21.25,7.09
	c9.74,1.18,19.49,0.6,28.94-1.77c5.91-1.48,12.1-3.25,17.71-6.49c4.72-2.66,9.45-4.72,13.28-8.57c3.84-3.54,6.49-7.67,7.09-13.28
	c0.6-8.27-3.54-13.88-10.04-18.3c-0.3-0.3-0.6-0.3-0.6-0.6c-2.76-1.97-3.15-4.43-1.18-7.39c2.66-4.43,5.91-8.57,9.45-12.4
	c1.77-1.77,3.25-3.54,5.31-5.02l0.3-0.3c3.74-2.76,7.38-2.36,10.92,1.18c2.06,2.06,5.31,3.84,6.79,6.2
	c3.25,4.72,7.39,9.15,9.45,14.76c0.6,1.48-0.6,1.77-1.48,2.06c-0.3,0-0.6,0.3-0.6,0.3c-5.61,2.66-9.74,6.49-11.22,12.7
	c-0.88,4.72,0.3,9.15,1.77,13.58c2.95,7.97,8.57,14.17,15.64,18.3c2.36,1.48,4.13,3.54,6.79,4.43c2.95,1.18,5.91,2.66,9.15,3.84
	c3.25,1.18,6.49,1.77,9.74,2.66c3.25,0.6,6.49,1.48,9.74,1.77c12.7,0.6,24.8-0.6,35.73-8.57c9.45-6.79,16.54-20.96,10.33-33.36
	c-0.88-1.77,0-2.06,0.88-2.66c0.3,0,0.6-0.3,0.88-0.6c4.72-3.54,10.04-6.49,15.64-8.85c5.31-2.06,10.92-3.54,16.83-3.84
	c2.36,0,2.66,0.3,1.48,2.66c-8.27,13.88-16.24,28.04-24.51,41.92c-5.31,9.15-10.63,18.3-16.54,27.16
	c-2.95,4.13-4.72,8.85-5.02,13.88c-0.88,7.67,2.66,13.88,9.15,17.12c4.13,2.06,10.33,0.3,13.58-3.84c1.77-2.66,3.54-5.31,5.61-8.85
	c1.48,5.02,1.48,9.45,1.18,13.88c-0.3,5.02-1.48,9.45-5.02,13.28s-7.97,5.91-12.99,6.49c0,1.77,1.18,2.06,2.06,2.66
	c6.79,4.72,8.57,11.22,7.09,18.89c-0.3,1.48-0.6,2.95,1.18,3.25c3.54,0.88,6.49,3.54,9.74,5.02c1.48,0.6,2.95,1.48,14.16,9.74
	c5.31,3.84,5.91,4.13,14.17,10.33c7.09,5.31,13.28,11.51,20.07,17.12c3.25,2.66,3.54,6.2,2.36,9.74c-0.6,1.77-1.18,3.54-2.06,5.31
	c-1.77,4.72-3.54,9.45-2.95,14.46c0.6,3.54,0.3,7.67,0,10.92c-0.88,6.49,0,12.7-1.77,18.89c0,0.6,0,1.18-0.3,1.48
	c-5.91,8.57-5.02,18.6-5.91,28.04c-2.06,16.54-11.51,27.46-25.98,35.73c1.18-3.54,2.36-6.49,3.25-9.15v-0.3
	c0.3-0.88,0.6-1.77,0-2.66c-0.6-0.6-1.18,0-1.77,0.3c-0.3,0-0.3,0.3-0.6,0.3c-2.95,1.18-6.2,2.66-8.85,2.36
	c-3.25,0-7.09-0.3-10.63-1.48h-1.77c2.06,3.54,3.84,6.49,5.61,9.45c6.2,10.33,10.92,20.96,15.94,31.88
	c4.72,10.04,9.15,20.37,14.76,30.12c0.88,1.48,1.77,2.95,2.95,4.13c5.91,6.49,14.76,3.84,18.01-3.25c0.3-0.88,0.88-2.36,0.88-4.13
	l0,0L796.98,539.85z M588.56,282.12c-0.6-1.18-0.88-1.48-1.18-1.77c-5.31-5.61-11.51-8.85-19.19-9.74
	c-9.15-1.18-17.12,1.18-23.91,7.09c-3.84,3.25-5.61,7.67-7.09,12.7c-2.06,7.67-1.48,14.76,1.48,21.85
	c2.66,6.2,7.97,10.04,13.58,12.99c3.54,1.77,7.39,3.25,11.22,4.13h0.3c0.88,0.3,2.06,0.6,1.77,2.36c-0.6,3.54-0.88,7.09-1.48,10.33
	c-1.77,8.27-1.48,16.83-0.6,24.8c2.36,21.25,13.28,38.09,29.22,51.67c15.06,12.7,31.3,23.91,46.94,35.73
	c8.57,6.49,17.12,13.28,25.68,19.78c6.2,4.72,12.4,9.45,18.01,14.76c5.91,5.31,11.51,11.22,17.12,17.12
	c3.25,3.25,5.91,7.09,9.15,10.33c2.06,2.06,3.84,5.61,5.91,8.27c16.24,23.33,25.09,49.01,23.33,77.94
	c-0.3,6.49-0.88,12.99-2.06,19.49c2.06-3.54,2.95-7.39,4.13-11.22c6.79-20.67,10.33-41.62,9.15-63.47
	c-0.88-14.46-4.72-28.34-10.63-41.33c-7.97-18.01-20.67-32.48-34.54-45.76c-12.1-11.51-25.68-20.67-39.56-29.52
	c-8.85-5.91-17.71-11.51-26.28-17.42c-3.25-2.06-6.2-4.43-9.15-7.09c-2.95-2.36-6.2-4.72-8.85-7.67c-2.36-2.36-5.02-4.72-6.79-7.67
	c-7.09-10.92-9.45-22.43-6.2-35.13c2.95-11.22,9.15-20.67,18.6-27.46c4.72-3.25,9.74-4.72,14.76-6.49c0.88-0.3,1.77,0,2.36,0.6
	c-2.36,3.25-4.43,6.79-7.09,9.45c-6.2,6.79-8.27,19.19-4.72,27.46c2.06,5.02,5.91,8.27,9.45,12.1c4.13,4.43,9.74,7.39,14.76,10.33
	c10.92,6.49,22.15,12.1,33.36,18.3c3.84,2.06,7.67,3.54,11.81,2.66c4.13-1.18,7.97-3.25,12.4-3.84c0.6,0,1.48-0.3,2.06-0.3
	c2.06-0.3,3.84-0.6,5.91-0.3c-3.54,1.77-6.49,4.43-9.45,6.79c-8.85,7.09-11.51,21.25-6.49,30.4c4.43,7.97,11.51,12.4,19.19,15.94
	c0.3,0.3,0.6,0.3,1.18,0.6c5.91,2.66,12.1,5.61,19.19,4.43c1.77,1.77,3.84,1.77,5.91,1.77c1.18,0,2.36,0,3.54,0.3
	c2.36,0.6,5.02,0,7.39-1.18c3.54-1.48,6.49-4.13,9.45-6.49c0.6,1.18,0.6,2.06,0.6,3.25v1.48c0.3,1.48,0.3,2.66,1.18,4.13
	c4.13-7.97,5.31-15.94,2.66-22.43c0-0.3,0-0.88,0.3-0.88c1.48-0.6,1.18-1.77,0.88-2.66V433c-0.88-4.43-1.77-8.85-2.95-12.99
	c-0.88-3.54-2.66-4.13-5.61-2.06c-6.79,4.43-13.88,8.57-21.55,11.81c-7.09,2.95-13.88,6.2-21.25,7.97
	c-6.79,1.77-11.51-0.88-12.99-7.39c-1.48-6.49,2.95-13.28,9.15-13.28c10.33-0.3,20.67,0,30.7-0.6c5.91-0.3,11.22-2.36,16.24-6.2
	c4.43-3.54,6.49-7.97,7.09-12.99c0.3-1.18,0.3-2.06,0.6-3.25c0.6-3.25,1.18-6.49,0.88-9.74c-0.3-2.66-1.77-4.43-3.84-4.72
	c-2.06-0.3-3.54-1.18-5.31-1.77c-2.06-0.6-4.13-1.48-6.2-2.06c-2.95-1.18-3.25-3.25-2.06-5.61c1.77-3.84,5.02-6.49,8.57-9.15
	c1.18-0.88,2.66-1.77,4.13-1.77c2.06,0.3,3.84,0,5.91,0c2.36-0.3,5.02-0.3,7.39,0.3c0.88,0.3,2.06,0.3,2.66-0.88
	c-24.51-21.25-52.85-36.01-82.67-50.77c2.66-0.3,4.43-0.3,5.91-0.3c4.43-0.3,6.2-3.25,3.54-7.09c-2.36-3.54-5.61-5.91-9.15-7.97
	c-7.67-5.31-16.83-7.39-25.98-8.85c-5.31-0.88-10.33-1.18-16.24-1.18c5.02,4.72,9.15,9.15,10.92,16.24
	c-20.96-12.7-42.8-14.76-65.53-9.74c13.58,0.6,26.28,2.66,35.73,14.76c-14.76,0-27.46,2.95-38.38,12.1
	c-4.72,4.13-9.15,8.27-12.4,13.88c-5.02,8.57-7.67,17.71-8.57,27.46c-0.88,9.15,0.88,18.3,2.95,27.16c0.6,2.36,1.77,4.43,2.06,7.67
	c-1.77-2.06-2.95-3.54-4.13-5.31c-6.49-10.63-9.15-22.15-8.27-34.54c0.88-12.1,3.54-23.61,10.33-33.65c0-0.3,0.3-0.3,0.3-0.6
	c0.6-0.6,0.88-1.18,0.6-1.77c-0.6-0.88-1.48-0.6-2.06-0.6h-0.6c-5.02,1.18-10.04,0.88-15.36,0.6l0,0
	c-7.09-0.3-13.28-2.95-17.42-8.57c-3.25-4.43-4.43-9.45-2.95-14.76c2.95-9.45,12.7-13.28,20.67-13.28c6.49-0.3,11.22,0.6,16.54,2.66
	l0,0L588.56,282.12z M726.13,347.37c-6.49-2.06-11.51-5.02-16.83-6.49c-3.84-0.88-7.39-0.88-10.92,0.88
	c-3.84,1.77-7.97,1.18-12.1-0.3c-0.6-0.3-1.18-0.3-1.48-0.6c-3.25-1.18-6.49-2.36-10.92-2.06c7.09-7.97,14.76-14.17,24.51-17.12h0.3
	c3.74-1.18,6.6,0.1,8.57,3.84c1.48,2.95,2.66,5.91,2.95,9.15c0.3,2.95,3.54,3.25,5.02,5.02c2.95,2.66,6.79,4.72,10.92,7.67l0,0
	V347.37z M701.92,329.65v-1.48c0-0.88,0-1.77-0.88-2.06c-1.18,0-1.48,1.18-1.77,2.06v0.6c-1.48,5.02-3.54,5.61-7.67,2.36
	c-1.18-0.88-2.06-0.3-2.66,0.3c-0.3,0.3-0.6,0.3-0.6,0.6c-1.48,0.88-0.6,2.06,0.3,2.66c1.77,1.48,3.54,1.77,5.91,1.48
	c4.13,0,7.67-2.36,7.39-6.49l0,0L701.92,329.65z M467.22,366.26c-0.6,2.66-2.66,3.25-3.84,4.43c-3.84,4.13-7.67,8.57-10.92,13.58
	c-5.31,7.39-7.97,15.36-9.15,23.91c-1.48,8.27-1.48,16.83-0.3,25.39c2.06,14.76,5.31,25.98,8.85,36.01
	c0.6,1.48,2.95,8.27,6.49,16.83c2.36,5.61,4.43,9.74,6.49,13.58c7.09,14.46,10.63,21.55,12.1,24.21c0.88,1.48,2.95,5.31,2.66,5.61
	c-0.3,0-0.88-0.3-1.18-0.6c-9.45-8.27-15.06-19.19-15.06-19.19c-6.49-9.15-12.1-19.19-17.12-28.94c-2.66-4.72-4.13-9.74-6.2-14.46
	c-2.36-5.31-3.84-10.92-5.31-16.54c-2.06-8.57-4.72-20.07-2.66-34.54c0.6-3.84,1.18-8.57,3.54-14.76
	c6.49-16.83,19.19-25.98,23.03-28.94c2.06-2.06,5.02-3.54,8.57-5.61l0,0V366.26z M563.75,517.71c-2.36-0.6-4.72-1.18-7.09-2.06
	c-14.17-4.43-26.57-11.22-35.43-23.33c-2.66-3.25-5.02-6.79-6.79-10.33c-8.57-16.24-11.51-33.65-11.51-51.67v-1.18
	c0-1.18,0-2.66-0.6-3.84c-1.77,5.91-2.06,11.81-2.66,17.71c-1.18,9.45-0.6,19.19,1.48,28.64c1.77,8.27,4.72,15.94,8.57,23.33
	c2.95,6.2,6.2,12.4,9.74,18.3c2.66,4.43,6.2,8.85,8.85,13.28c3.54,5.31,6.79,10.92,9.45,17.12c4.72,10.63,8.57,20.96,7.97,33.06
	c-0.6,13.28-6.49,23.33-18.01,29.82c-2.66,1.48-5.31,2.66-7.97,3.84c8.57-0.3,16.24-3.25,23.03-8.27
	c10.04-7.67,14.16-18.3,14.76-30.4c0.6-13.28-3.54-25.39-10.04-36.61c-2.95-5.31-6.79-10.04-10.92-14.76
	c14.46,2.36,20.96,0.3,27.16-2.66L563.75,517.71z M680.66,658.24c7.09-4.72,11.81-11.22,16.83-18.01
	c6.49-9.15,10.04-19.49,12.1-30.4c0.6-2.66,0.88-5.31,1.18-7.67v-2.66c0-1.18-0.3-2.66,0-3.84c0.6-2.66,0.3-5.61,0-8.27v-0.88
	c-0.3-2.66-0.6-5.61-1.18-8.27c-0.88-6.49-2.66-12.7-4.72-18.6c-4.13-12.1-10.33-23.33-18.3-33.65
	c-6.49-8.57-13.88-16.24-21.85-23.33c-10.04-9.15-20.96-17.12-31.88-25.09c-13.58-9.74-27.46-18.89-40.74-28.94
	c-4.43-3.54-9.15-7.09-13.58-10.63c-3.84-3.25-7.67-6.49-12.4-10.33c3.25,7.67,8.27,12.99,12.99,18.3
	c6.49,7.09,13.58,13.88,20.96,20.07c10.92,9.15,21.25,18.89,32.48,28.04c6.2,5.02,11.81,10.63,17.42,16.54
	c5.31,5.31,10.63,10.63,15.36,16.24c12.7,15.06,23.03,31.3,28.94,50.49c2.66,7.97,5.02,16.24,5.02,24.51v1.77
	c0,6.2,0.3,12.7-1.48,18.89c-1.77,6.49-3.25,12.7-6.2,18.6c-3.25,5.91-6.49,11.81-10.92,17.12l0,0L680.66,658.24z M552.83,646.14
	h6.79c4.13,0,8.57,0.3,12.7,0c24.8-2.06,46.64-10.04,62.29-31c2.36-3.25,5.61-8.27,7.67-15.64c2.06-7.39,1.48-13.88,0.88-25.98
	c0-1.77,0-3.25-0.6-4.72c-3.54-11.51-9.15-21.55-16.83-30.4c-0.3-0.3-0.6-0.6-0.88-1.18c-0.88-1.18-1.77-2.36-2.66-3.84
	c7.67,5.61,13.88,12.1,19.49,19.49c7.09,9.15,12.4,19.49,14.17,30.4c2.36,14.76-0.3,28.94-8.57,41.92
	c-11.51,17.42-27.75,27.16-48.12,30.12c-5.61,0.88-11.22,0.6-16.83,0l0,0c-10.92-0.6-20.37-4.43-29.52-9.15l0,0L552.83,646.14z
	 M469.88,592.99c12.99,14.17,35.13,16.83,49.59,3.84c12.7-11.22,13.58-30.7,3.84-44.28c1.48,3.84,1.77,7.67,2.36,11.51
	c0.6,5.91-0.3,11.51-2.95,16.83c-6.79,13.58-22.73,18.6-37.19,16.54C480.21,596.24,474.89,594.47,469.88,592.99L469.88,592.99
	L469.88,592.99z"/>
</svg>
