<?xml version="1.0" encoding="utf-8"?>
<!-- Generator: Adobe Illustrator 25.4.1, SVG Export Plug-In . SVG Version: 6.00 Build 0)  -->
<svg version="1.1" id="Layer_1" xmlns="http://www.w3.org/2000/svg" xmlns:xlink="http://www.w3.org/1999/xlink" x="0px" y="0px"
	 viewBox="0 0 1233 867" style="enable-background:new 0 0 1233 867;" xml:space="preserve">
<style type="text/css">
	.st0{fill:#FFFFFF;}
	.st1{fill:#222221;}
	.st2{fill:#BAC6CF;}
	.st3{fill:#A1B7C6;}
	.st4{fill:#8AA8BE;}
	.st5{fill:#869BB5;}
	.st6{fill:#758DAC;}
	.st7{fill:#5F82A5;}
	.st8{fill:#4C7F9D;}
	.st9{fill:#487F95;}
	.st10{fill:#487F8D;}
	.st11{fill:#477E85;}
	.st12{fill:#427580;}
</style>
<rect class="st0" width="1233" height="867"/>
<g>
	<path class="st1" d="M994.07,465.58c1.82,0,3.64,0.09,5.45,0.28c1.34,0.12,2.67,0.38,3.95,0.79c0.9,0.26,1.75,0.69,2.49,1.26
		c1.2,0.98,1.94,2.4,2.05,3.95c0.06,0.87,0.06,1.74,0,2.61c0,0.89-0.07,1.77-0.24,2.64c-0.17,0.8-0.48,1.56-0.91,2.25
		c-0.46,0.71-1.05,1.32-1.74,1.82c-0.87,0.6-1.83,1.07-2.84,1.38c-1.29,0.39-2.61,0.67-3.95,0.83c-1.86,0.2-3.73,0.3-5.61,0.28
		h-5.13c-1.68,0.09-3.37,0.09-5.05,0c-1.27-0.13-2.52-0.35-3.75-0.67c-0.92-0.25-1.8-0.64-2.61-1.14c-0.63-0.44-1.18-0.98-1.62-1.62
		c-0.42-0.65-0.71-1.37-0.87-2.13c-0.16-0.87-0.24-1.76-0.24-2.64h3.95c-0.05,0.99,0.13,1.97,0.51,2.88
		c0.38,0.7,0.99,1.25,1.74,1.54c1.01,0.39,2.08,0.62,3.16,0.67c1.29,0,2.91,0,4.86,0h5.13c1.87,0.02,3.75-0.09,5.61-0.32
		c1.23-0.14,2.43-0.49,3.55-1.03c0.81-0.39,1.47-1.04,1.86-1.86c0.41-0.88,0.6-1.84,0.55-2.8c0.02-0.92-0.1-1.84-0.36-2.72
		c-0.26-0.73-0.78-1.35-1.46-1.74c-0.96-0.5-2-0.81-3.08-0.91c-1.73-0.21-3.47-0.31-5.21-0.28h-5.33c-2.02,0.02-4.03-0.07-6.04-0.28
		c-1.43-0.12-2.84-0.38-4.22-0.75c-0.98-0.23-1.9-0.65-2.72-1.22c-0.65-0.42-1.19-0.99-1.58-1.66c-0.37-0.66-0.6-1.38-0.67-2.13
		c-0.06-0.83-0.06-1.66,0-2.49c-0.01-0.87,0.07-1.75,0.24-2.61c0.15-0.79,0.47-1.53,0.95-2.17c0.49-0.7,1.12-1.3,1.86-1.74
		c0.95-0.58,1.97-1.02,3.04-1.3c1.46-0.37,2.96-0.62,4.46-0.75c2.05-0.21,4.1-0.3,6.16-0.28h3.95c1.93,0,3.59,0,5.05,0
		c1.26,0.13,2.52,0.36,3.75,0.67c0.92,0.25,1.8,0.64,2.61,1.14c1.31,0.84,2.21,2.18,2.49,3.71c0.17,0.87,0.25,1.76,0.24,2.64h-3.95
		c0.06-0.97-0.12-1.95-0.51-2.84c-0.38-0.7-0.99-1.25-1.74-1.54c-1.01-0.37-2.08-0.59-3.16-0.63c-1.29,0-2.91,0-4.86,0h-3.95
		c-2.57,0-4.7,0-6.36,0.24c-1.35,0.12-2.68,0.44-3.95,0.95c-0.83,0.33-1.53,0.92-1.97,1.7c-0.42,0.85-0.62,1.78-0.59,2.72
		c-0.05,0.59-0.05,1.19,0,1.78c0.07,0.5,0.26,0.97,0.55,1.38c0.33,0.42,0.74,0.76,1.22,0.99c0.66,0.33,1.36,0.56,2.09,0.67
		c1.03,0.21,2.07,0.35,3.12,0.39c1.26,0,2.72,0,4.42,0L994.07,465.58z"/>
	<rect x="1013.17" y="479.08" class="st1" width="3.87" height="3.87"/>
	<path class="st1" d="M1053.52,475.88h-24.12l-3.95,7.07h-4.46l17.57-30.87h5.53l17.53,30.87h-3.95L1053.52,475.88z M1051.7,472.68
		l-10.22-18.04l-10.26,18.04H1051.7z"/>
	<rect x="1065.91" y="479.08" class="st1" width="3.87" height="3.87"/>
	<path class="st1" d="M1095.63,465.58c1.82,0,3.64,0.09,5.45,0.28c1.34,0.12,2.67,0.38,3.95,0.79c0.89,0.25,1.73,0.68,2.45,1.26
		c0.59,0.48,1.09,1.07,1.46,1.74c0.34,0.69,0.55,1.44,0.63,2.21c0.06,0.87,0.06,1.74,0,2.61c0.01,0.89-0.07,1.77-0.24,2.64
		c-0.17,0.8-0.48,1.56-0.91,2.25c-0.46,0.71-1.05,1.32-1.74,1.82c-0.87,0.6-1.83,1.07-2.84,1.38c-1.29,0.39-2.61,0.67-3.95,0.83
		c-1.86,0.2-3.73,0.3-5.61,0.28h-5.13c-1.68,0.09-3.37,0.09-5.05,0c-1.27-0.13-2.52-0.35-3.75-0.67c-0.92-0.25-1.8-0.63-2.61-1.14
		c-0.63-0.44-1.18-0.98-1.62-1.62c-0.43-0.64-0.73-1.37-0.87-2.13c-0.16-0.87-0.24-1.76-0.24-2.64h3.95
		c-0.05,0.99,0.13,1.97,0.51,2.88c0.38,0.7,0.99,1.25,1.74,1.54c1.01,0.39,2.08,0.62,3.16,0.67c1.29,0,2.91,0,4.86,0h5.13
		c1.87,0.02,3.75-0.09,5.61-0.32c1.23-0.14,2.43-0.49,3.55-1.03c0.81-0.4,1.47-1.05,1.89-1.86c0.37-0.89,0.55-1.84,0.51-2.8
		c0.02-0.92-0.1-1.84-0.36-2.72c-0.26-0.73-0.78-1.35-1.46-1.74c-0.96-0.5-2-0.81-3.08-0.91c-1.73-0.21-3.47-0.31-5.21-0.28h-5.33
		c-2.02,0.02-4.03-0.07-6.04-0.28c-1.43-0.12-2.84-0.38-4.22-0.75c-0.98-0.23-1.9-0.65-2.72-1.22c-0.65-0.42-1.19-0.99-1.58-1.66
		c-0.37-0.66-0.6-1.38-0.67-2.13c-0.06-0.83-0.06-1.66,0-2.49c-0.01-0.87,0.07-1.75,0.24-2.61c0.15-0.79,0.47-1.53,0.95-2.17
		c0.49-0.7,1.12-1.3,1.86-1.74c0.95-0.58,1.97-1.02,3.04-1.3c1.46-0.37,2.96-0.62,4.46-0.75c2.05-0.21,4.1-0.3,6.16-0.28h3.95
		c1.89,0,3.59,0,5.05,0c1.33,0.12,2.65,0.35,3.95,0.67c0.91,0.25,1.77,0.63,2.57,1.14c0.66,0.4,1.23,0.94,1.66,1.58
		c0.43,0.64,0.73,1.37,0.87,2.13c0.17,0.87,0.25,1.76,0.24,2.64h-3.95c0.06-0.97-0.12-1.95-0.51-2.84c-0.38-0.7-0.99-1.25-1.74-1.54
		c-1.01-0.37-2.08-0.59-3.16-0.63c-1.3,0-2.96,0-4.86,0h-3.95c-2.57,0-4.7,0-6.36,0.24c-1.35,0.12-2.68,0.44-3.95,0.95
		c-0.83,0.33-1.53,0.92-1.97,1.7c-0.42,0.85-0.62,1.78-0.59,2.72c-0.07,0.59-0.07,1.19,0,1.78c0.07,0.5,0.26,0.97,0.55,1.38
		c0.33,0.42,0.74,0.76,1.22,0.99c0.65,0.32,1.34,0.55,2.05,0.67c1.04,0.21,2.1,0.34,3.16,0.39c1.26,0,2.72,0,4.42,0L1095.63,465.58z
		"/>
	<path class="st1" d="M188.68,361.29c5.11-0.08,10.23,0.29,15.28,1.11c3.55,0.54,6.99,1.66,10.18,3.32c2.5,1.34,4.63,3.28,6.2,5.64
		c1.5,2.43,2.56,5.1,3.16,7.89c0.71,3.4,1.11,6.87,1.18,10.34c0,3.95,0.2,7.89,0.2,12.79s0,8.92-0.2,12.75
		c-0.08,3.48-0.47,6.94-1.18,10.34c-0.59,2.79-1.66,5.46-3.16,7.89c-1.57,2.36-3.7,4.3-6.2,5.64c-3.18,1.67-6.63,2.79-10.18,3.32
		c-5.05,0.83-10.16,1.21-15.28,1.14h-29.76c-5.1,0.07-10.2-0.32-15.24-1.14c-3.57-0.52-7.03-1.64-10.22-3.32
		c-2.48-1.3-4.61-3.18-6.2-5.49c-1.53-2.42-2.61-5.09-3.2-7.89c-0.78-3.42-1.21-6.91-1.3-10.42c0-3.95,0-8.09,0-12.75
		s0-8.92,0-12.79c0.05-3.48,0.43-6.94,1.14-10.34c0.59-2.8,1.67-5.47,3.2-7.89c1.57-2.36,3.7-4.3,6.2-5.64
		c3.25-1.7,6.76-2.85,10.38-3.39c5.04-0.81,10.14-1.18,15.24-1.11H188.68z M188.68,435.38c4.34,0,7.89,0,11.05-0.39
		c2.54-0.15,5.04-0.68,7.42-1.58c1.81-0.66,3.39-1.84,4.54-3.39c1.17-1.76,1.95-3.75,2.29-5.84c0.56-2.97,0.85-5.98,0.87-9
		c0-3.55,0-7.89,0-12.71s0-9.2,0-12.75c-0.02-3.02-0.31-6.03-0.87-9c-0.33-2.09-1.12-4.08-2.29-5.84c-1.14-1.54-2.7-2.72-4.5-3.39
		c-2.38-0.9-4.88-1.43-7.42-1.58c-3-0.28-6.71-0.39-11.09-0.39h-29.76c-4.38,0-7.89,0-11.09,0.39c-2.54,0.15-5.04,0.68-7.42,1.58
		c-1.81,0.67-3.38,1.85-4.54,3.39c-1.17,1.76-1.95,3.75-2.29,5.84c-0.52,2.97-0.8,5.98-0.83,9c0,3.55,0,7.89,0,12.75s0,9.16,0,12.71
		c0.06,3.02,0.35,6.03,0.87,9c0.33,2.09,1.12,4.08,2.29,5.84c1.14,1.54,2.7,2.72,4.5,3.39c2.38,0.9,4.88,1.43,7.42,1.58
		c3.04,0.28,6.71,0.39,11.09,0.39H188.68z"/>
	<polygon class="st1" points="251.21,369.5 251.21,441.97 241.34,441.97 241.34,362.91 257.21,362.91 303.27,432.1 349.38,362.91 
		365.68,362.91 365.68,441.97 355.77,441.97 355.77,370.6 308.84,441.97 298.85,441.97 	"/>
	<polygon class="st1" points="395.33,441.97 385.42,441.97 385.42,362.91 402.79,362.91 475.22,432.06 475.22,362.91 485.13,362.91 
		485.13,441.97 471.95,441.97 395.33,371.16 	"/>
	<path class="st1" d="M875.01,423.85H813.2l-10.34,18.12h-11.41l45.08-78.95h14.17l44.96,78.95h-10.34L875.01,423.85z M870.36,415.6
		l-26.21-46.15l-26.29,46.15H870.36z"/>
	<path class="st1" d="M992.29,387.62c0.12-3.32-0.33-6.63-1.34-9.79c-0.79-2.28-2.36-4.2-4.42-5.45c-2.44-1.34-5.13-2.14-7.89-2.37
		c-3.36-0.32-7.5-0.51-12.43-0.51h-23.13c-4.38,0-7.89,0-11.05,0.39c-2.55,0.15-5.07,0.68-7.46,1.58c-1.81,0.67-3.38,1.85-4.54,3.39
		c-1.17,1.76-1.95,3.75-2.29,5.84c-0.52,2.97-0.8,5.98-0.83,9c0,3.55,0,7.89,0,12.75s0,9.16,0,12.71c0.03,3.02,0.31,6.03,0.83,9
		c0.33,2.09,1.12,4.08,2.29,5.84c1.14,1.54,2.7,2.72,4.5,3.39c2.39,0.9,4.91,1.43,7.46,1.58c3,0.28,6.67,0.39,11.05,0.39h23.13
		c3.95,0,7.14,0,9.91-0.32c2.4-0.14,4.78-0.52,7.11-1.14c1.72-0.41,3.33-1.18,4.74-2.25c1.22-0.96,2.18-2.21,2.8-3.63
		c0.73-1.67,1.2-3.44,1.38-5.25c0.25-2.39,0.37-4.78,0.36-7.18h9.87c0.02,3-0.18,5.99-0.59,8.96c-0.36,2.46-1.11,4.84-2.21,7.07
		c-1.08,2.08-2.57,3.92-4.38,5.41c-1.97,1.63-4.22,2.88-6.63,3.71c-3.11,1.08-6.32,1.81-9.59,2.17c-4.3,0.51-8.62,0.75-12.95,0.71
		h-23.13c-5.1,0.07-10.2-0.32-15.24-1.14c-3.57-0.52-7.03-1.64-10.22-3.32c-2.5-1.34-4.63-3.28-6.2-5.64
		c-1.53-2.42-2.61-5.09-3.2-7.89c-0.72-3.4-1.1-6.87-1.14-10.34c0-3.95,0-8.09,0-12.75s0-8.92,0-12.79
		c0.05-3.48,0.43-6.94,1.14-10.34c0.59-2.8,1.67-5.47,3.2-7.89c1.57-2.36,3.7-4.3,6.2-5.64c3.2-1.66,6.66-2.78,10.22-3.32
		c5.04-0.81,10.14-1.18,15.24-1.11h23.13c4.33-0.05,8.65,0.18,12.95,0.67c3.26,0.37,6.48,1.09,9.59,2.13
		c2.4,0.79,4.64,1.99,6.63,3.55c1.71,1.41,3.13,3.14,4.18,5.09c1.09,2.08,1.83,4.32,2.21,6.63c0.41,2.73,0.61,5.49,0.59,8.25
		L992.29,387.62z"/>
	<polygon class="st1" points="1092.75,362.91 1107.59,362.91 1051.58,401.63 1109.21,441.97 1094.41,441.97 1041.75,405.73 
		1028.53,405.73 1028.53,441.97 1018.66,441.97 1018.66,362.91 1028.53,362.91 1028.53,397.48 1041.71,397.48 	"/>
	<rect x="522.28" y="362.91" class="st2" width="9.87" height="79.07"/>
	<rect x="539.64" y="362.91" class="st3" width="9.87" height="79.07"/>
	<rect x="557.01" y="362.91" class="st4" width="9.87" height="79.07"/>
	<rect x="574.38" y="362.91" class="st5" width="9.87" height="79.07"/>
	<rect x="591.79" y="362.91" class="st6" width="9.87" height="79.07"/>
	<rect x="609.16" y="362.91" class="st7" width="9.87" height="79.07"/>
	<rect x="626.53" y="362.91" class="st8" width="9.87" height="79.07"/>
	<rect x="643.89" y="362.91" class="st9" width="9.87" height="79.07"/>
	<rect x="661.3" y="362.91" class="st10" width="9.87" height="79.07"/>
	<rect x="678.67" y="362.91" class="st11" width="9.87" height="79.07"/>
	<path class="st1" d="M784.7,379.05c-0.05-1.96-0.37-3.9-0.95-5.76c-0.52-1.67-1.41-3.21-2.61-4.5c-1.43-1.43-3.15-2.52-5.05-3.2
		c-2.7-0.97-5.51-1.6-8.37-1.89c-4.13-0.49-8.28-0.71-12.43-0.67h-49.38v8.13h42.63c4.42,0,8.09,0,11.09,0
		c2.5,0.04,4.99,0.26,7.46,0.67c1.59,0.23,3.13,0.75,4.54,1.54c1.02,0.61,1.83,1.52,2.33,2.61c0.51,1.26,0.81,2.59,0.87,3.95
		c0,1.62,0,3.55,0,5.76s0,4.5,0,6.2c-0.05,1.52-0.34,3.03-0.87,4.46c-0.46,1.21-1.27,2.25-2.33,3c-1.38,0.88-2.93,1.47-4.54,1.74
		c-2.46,0.49-4.95,0.78-7.46,0.87c-3,0-6.67,0.24-11.09,0.24h-42.63v8.45h42.63c5.1,0.05,10.2-0.19,15.28-0.71
		c3.49-0.34,6.93-1.05,10.26-2.13c2.3-0.68,4.41-1.87,6.2-3.47c1.43-1.33,2.52-2.98,3.2-4.82c0.7-1.98,1.1-4.06,1.18-6.16
		c0-2.25,0-4.74,0-7.42s0-4.89,0-7.03"/>
	<rect x="696.04" y="362.91" class="st12" width="9.83" height="79.07"/>
	<rect x="504.87" y="362.91" class="st1" width="9.87" height="79.07"/>
</g>
</svg>
