<?xml version="1.0" encoding="utf-8"?>
<!-- Generator: Adobe Illustrator 25.4.1, SVG Export Plug-In . SVG Version: 6.00 Build 0)  -->
<svg version="1.1" id="Layer_1" xmlns="http://www.w3.org/2000/svg" xmlns:xlink="http://www.w3.org/1999/xlink" x="0px" y="0px"
	 viewBox="0 0 1233 867" style="enable-background:new 0 0 1233 867;" xml:space="preserve">
<style type="text/css">
	.st0{fill:#FFFFFF;}
	.st1{fill:#00649D;}
</style>
<rect class="st0" width="1233" height="867"/>
<g>
	<path class="st0" d="M616.58,777.74c-202.82,0.04-367.27-164.34-367.32-367.16C249.22,207.76,413.6,43.31,616.42,43.26
		S983.69,207.6,983.74,410.42c0,0.04,0,0.07,0,0.11c-0.23,202.69-164.48,366.95-367.17,367.21 M616.57,67.36
		c-189.51-0.04-343.17,153.56-343.21,343.07S426.91,753.6,616.43,753.64c189.51,0.04,343.17-153.56,343.21-343.07
		c0-0.01,0-0.03,0-0.04c-0.2-189.4-153.66-342.91-343.06-343.17"/>
	<path class="st1" d="M616.56,55.32C420.4,55.28,261.34,214.26,261.3,410.43s158.95,355.22,355.11,355.26
		c196.16,0.04,355.22-158.95,355.26-355.11c0-0.01,0-0.03,0-0.04C971.68,214.39,812.71,55.36,616.56,55.32"/>
	<path class="st0" d="M624.28,399.85c-2.15,18-1.32,44.26-2.49,57.06c-0.5,6.32-4.61,9.95-5.16,0.36
		c-1.57-28.34-1.31-56.75,0.77-85.05c1.54-19.93,8.94-38.96,21.25-54.7c20.05-26.63,46.59-38.63,71.25-60.94
		c14.83-13.44,21.95-31.23,21.87-53.11c0-7.66,4.35-10.13,4.89,1.14c1.38,26.75-7.78,42.14-18,53.36
		c-36.23,39.79-60.54,46.13-80.24,84.41c-12.29,23.87-11.55,35.27-14.16,57.5"/>
	<path class="st0" d="M542.89,303.76c-30.06-23.73-51.31-63.92-41.65-104.58c0.83-4,3.07-4.23,3.7-1.97
		c-1.63,32.48,2.44,49.81,26.1,75.86c24.12,26.4,23.67,24.84,33.68,38.45c11.85,16.07,14.38,26.67,13.27,43.78
		c0.66,6.31-4.49,7.23-4.7-0.48C572.18,334.6,564.72,321.07,542.89,303.76"/>
	<path class="st0" d="M618.72,199.99c-26.2-0.29-45.59,17.74-45.78,40.74c-0.18,22.9,18.88,42.21,45.09,42.42
		c26.21,0.22,47.68-18.18,47.85-41.1C666.06,219,644.95,200.22,618.72,199.99 M616.09,277.22c-19.81-0.92-35.12-17.72-34.2-37.53
		c0.92-19.81,17.72-35.12,37.53-34.2c19.28,0.9,34.4,16.87,34.24,36.17C653.07,261.84,636.27,277.74,616.09,277.22"/>
	<path class="st0" d="M697.41,388.88c-24.05,22.61-44.45,52.42-54.05,80.33c-11.49,33.73-14.86,61.95-17.26,97.36
		c-1.76,27.42-0.74,76.74,0.54,105.03c0,1.14,2.01,8.3,2.96-1.2c0.83-28.49,1.11-83.77,3.19-105.66
		c2.23-31.18,8.55-61.93,18.8-91.46c6.34-17.12,14.93-33.33,25.52-48.21c10.42-16.56,20.54-25.84,37.23-41.53
		c13.63-12.73,26.99-20.73,40.63-30.98c2.01-1.62,0.62-3.56-3.02-1.16c-10.25,6.7-17.28,9.66-28.29,16.9
		C714.45,374.56,705.68,381.43,697.41,388.88"/>
	<path class="st0" d="M811.56,341.97c-25.88,27.28-55,51.29-86.71,71.49c-1.08,1.19,0.6,2.46,1.58,2.01
		c11.23-5.67,22.04-12.14,32.36-19.34c43.61-30.27,69.69-53.63,101.49-114.84c1.88-3.73,0.31-4.72-1.94-0.99
		c-1.06,1.81-2.22,3.57-3.46,5.27C842.15,305.61,827.66,324.49,811.56,341.97"/>
	<path class="st0" d="M846.34,357.88c-16.47,18.59-34.02,36.2-52.56,52.73c-1.12,1.2,0.31,2.06,2.13,1.03
		c1.69-0.83,3.34-1.76,4.93-2.77c25.98-17.89,39.66-33.69,55.53-52.85c13.34-18.47,24.55-38.39,33.42-59.38
		c1.88-4.02-0.44-3.79-2.47-0.26c-11.5,21.87-25.23,42.49-40.99,61.52"/>
	<path class="st0" d="M809.4,524.06c-16.83,12.33-31.57,23.03-46.7,36.47c-7.09,6.29-12.94,13.86-17.23,22.31
		c-3.99,9.74-5.71,18.38-5.27,37.79c-0.47,7.53,3.37,8.42,3.6,0c0.11-3.17,0.58-8.56,1.23-14.57c1.13-16.11,9.5-30.85,22.75-40.09
		c57.5-44.09,114.65-78.68,147.93-136.95c1.48-2.26,1.27-4.45-0.35-3.31c-1.58,1.69-3.02,3.49-4.31,5.41
		c-13.12,18.1-37.9,42.67-59.36,61.21c-15.18,12.32-27.06,20.47-42.32,31.71"/>
	<path class="st0" d="M870.14,381.94c-16.44,18.61-33.92,36.29-52.35,52.93c-1,1.14,0.04,2.52,2.06,1.27
		c3.31-2.01,6.47-4.24,9.47-6.68c19.01-13.58,35.95-29.84,50.29-48.28c12.7-17.17,23.15-35.89,31.1-55.71
		c1.2-2.9-0.57-3.24-2.26-0.29c-16.36,29.85-21.86,37.52-38.3,56.75"/>
	<path class="st0" d="M889.85,412.7c-16.74,19.51-29.18,29.91-51.36,50.11c-0.62,0.44,0,2.32,1.56,1.32
		c4.27-2.64,8.4-5.5,12.37-8.57c24.27-18.44,34.26-27.77,48.04-46.46c9.95-14.37,18.4-29.73,25.21-45.83
		c2.08-4.67-0.06-4.85-2.12-1.32c-8.84,18.39-20.18,35.47-33.69,50.76"/>
	<path class="st0" d="M536.79,388.89c23.99,22.66,44.41,52.48,53.99,80.44c11.55,33.68,14.92,61.94,17.27,97.33
		c1.76,27.42,0.8,76.68-0.49,105.02c-0.07,1.12-2.02,8.24-3.02-1.14c-0.85-28.57-1.08-83.84-3.22-105.79
		c-2.19-31.18-8.52-61.92-18.81-91.43c-6.33-17.1-14.89-33.3-25.46-48.16c-10.42-16.6-20.53-25.86-37.23-41.56
		c-13.65-12.73-26.95-20.75-40.65-31.03c-2.04-1.58-0.6-3.51,3.04-1.09c10.24,6.71,17.3,9.63,28.29,16.89
		c9.21,6.24,17.99,13.09,26.3,20.5"/>
	<path class="st0" d="M422.6,342.01c25.85,27.29,54.96,51.3,86.68,71.49c1.12,1.2-0.53,2.5-1.54,1.98
		c-11.24-5.69-22.08-12.15-32.44-19.31c-43.55-30.27-69.61-53.64-101.43-114.9c-1.82-3.68-0.25-4.66,1.96-0.95
		c1.05,1.81,2.2,3.57,3.44,5.27C391.99,305.65,406.5,324.53,422.6,342.01"/>
	<path class="st0" d="M387.79,357.94c16.48,18.57,34.01,36.17,52.53,52.71c1.13,1.27-0.2,2.06-2.06,1.06
		c-1.15-0.67-2.97-1.47-5.01-2.77c-21.12-14.69-39.86-32.54-55.55-52.92c-13.3-18.47-24.46-38.38-33.28-59.36
		c-1.91-4,0.48-3.78,2.42-0.24C358.32,318.28,372.05,338.9,387.79,357.94"/>
	<path class="st0" d="M424.76,524.12c16.83,12.29,31.57,23.02,46.73,36.43c7.09,6.3,12.93,13.89,17.21,22.36
		c3.95,9.66,5.66,18.35,5.27,37.77c0.41,7.49-3.48,8.34-3.66,0.02c-0.05-3.2-0.63-8.61-1.18-14.6c-1.15-16.12-9.53-30.86-22.78-40.1
		c-57.55-44.1-114.68-78.63-147.87-136.91c-1.52-2.3-1.32-4.39,0.31-3.3c1.56,1.71,3,3.51,4.31,5.41
		c13.11,18.05,37.86,42.69,59.31,61.18c15.21,12.33,27.12,20.52,42.35,31.72"/>
	<path class="st0" d="M364.03,382.08c16.45,18.59,33.94,36.23,52.4,52.83c0.92,1.17-0.15,2.52-2.1,1.24
		c-3.3-1.98-6.46-4.18-9.46-6.58c-19.01-13.61-35.97-29.87-50.37-48.28c-12.69-17.16-23.12-35.89-31.02-55.72
		c-1.24-2.91,0.54-3.24,2.26-0.31C342.06,355.13,347.5,362.76,364.03,382.08"/>
	<path class="st0" d="M344.31,412.77c16.75,19.49,29.16,29.97,51.36,50.14c0.55,0.44,0,2.27-1.56,1.25
		c-4.3-2.58-8.45-5.41-12.41-8.48c-24.3-18.5-34.24-27.79-48.01-46.53c-9.97-14.34-18.43-29.69-25.22-45.78
		c-2.11-4.66,0.12-4.83,2.1-1.32c8.83,18.41,20.18,35.49,33.73,50.76"/>
</g>
</svg>
