<?xml version="1.0" encoding="utf-8"?>
<!-- Generator: Adobe Illustrator 25.4.1, SVG Export Plug-In . SVG Version: 6.00 Build 0)  -->
<svg version="1.1" id="Layer_1" xmlns="http://www.w3.org/2000/svg" xmlns:xlink="http://www.w3.org/1999/xlink" x="0px" y="0px"
	 viewBox="0 0 1233 867" style="enable-background:new 0 0 1233 867;" xml:space="preserve">
<style type="text/css">
	.st0{fill:#FFFFFF;}
	.st1{fill:#00649D;}
</style>
<rect class="st0" width="1233" height="867"/>
<g>
	<path class="st0" d="M616.57,718.19c-168.71,0.04-305.5-136.7-305.54-305.4s136.7-305.5,305.4-305.54s305.5,136.7,305.54,305.4
		c0,0.03,0,0.06,0,0.09c-0.2,168.6-136.82,305.23-305.41,305.44 M616.55,127.29c-157.64-0.03-285.45,127.73-285.49,285.37
		C331.04,570.3,458.8,698.12,616.44,698.15c157.64,0.03,285.45-127.73,285.49-285.37c0-0.01,0-0.02,0-0.04
		c-0.17-157.54-127.81-285.23-285.36-285.45"/>
	<path class="st1" d="M616.55,117.28c-163.17-0.03-295.47,132.21-295.51,295.38c-0.03,163.17,132.21,295.47,295.38,295.51
		S911.9,575.96,911.94,412.79c0-0.01,0-0.02,0-0.04C911.94,249.59,779.71,117.32,616.55,117.28"/>
	<path class="st0" d="M622.97,403.86c-1.79,14.97-1.1,36.81-2.07,47.47c-0.42,5.25-3.84,8.27-4.29,0.3
		c-1.31-23.57-1.09-47.2,0.64-70.75c1.28-16.58,7.43-32.41,17.68-45.5c16.68-22.15,38.75-32.13,59.27-50.69
		c12.33-11.18,18.26-25.97,18.19-44.18c0-6.38,3.62-8.43,4.07,0.95c1.15,22.25-6.47,35.05-14.97,44.38
		c-30.13,33.1-50.36,38.37-66.74,70.21c-10.22,19.85-9.61,29.34-11.78,47.83"/>
	<path class="st0" d="M555.27,323.93c-25.01-19.74-42.68-53.17-34.64-86.99c0.69-3.33,2.56-3.52,3.07-1.64
		c-1.35,27.02,2.03,41.43,21.71,63.1c20.06,21.96,19.69,20.67,28.01,31.98c9.86,13.37,11.96,22.18,11.04,36.42
		c0.55,5.25-3.74,6.02-3.91-0.4C579.64,349.59,573.43,338.33,555.27,323.93"/>
	<path class="st0" d="M618.34,237.62c-21.79-0.24-37.93,14.75-38.08,33.89c-0.15,19.04,15.7,35.11,37.51,35.29
		c21.81,0.18,39.66-15.12,39.8-34.19C657.73,253.43,640.17,237.81,618.34,237.62 M616.16,301.86
		c-16.48-0.76-29.21-14.74-28.45-31.22c0.76-16.48,14.74-29.21,31.22-28.45c16.04,0.74,28.62,14.03,28.48,30.09
		C646.92,289.06,632.94,302.29,616.16,301.86"/>
	<path class="st0" d="M683.8,394.74c-20,18.81-36.98,43.6-44.96,66.82c-9.56,28.06-12.36,51.53-14.36,80.99
		c-1.46,22.81-0.61,63.83,0.45,87.37c0,0.95,1.67,6.91,2.46-1c0.69-23.7,0.92-69.68,2.65-87.89c1.85-25.93,7.11-51.51,15.63-76.08
		c5.28-14.24,12.42-27.73,21.23-40.1c8.66-13.78,17.09-21.49,30.97-34.54c11.34-10.59,22.45-17.24,33.8-25.77
		c1.67-1.35,0.51-2.96-2.52-0.96c-8.52,5.57-14.37,8.03-23.54,14.06C697.97,382.83,690.68,388.54,683.8,394.74"/>
	<path class="st0" d="M778.75,355.71c-21.53,22.69-45.75,42.66-72.13,59.46c-0.9,0.99,0.5,2.05,1.31,1.67
		c9.34-4.72,18.34-10.09,26.92-16.09c36.27-25.18,57.97-44.61,84.42-95.52c1.56-3.1,0.26-3.93-1.61-0.83
		c-0.88,1.51-1.84,2.97-2.88,4.38C804.2,325.47,792.14,341.18,778.75,355.71"/>
	<path class="st0" d="M807.69,368.95c-13.7,15.47-28.3,30.11-43.72,43.86c-0.93,1,0.26,1.71,1.77,0.86c1.41-0.69,2.78-1.46,4.1-2.3
		c21.61-14.88,32.99-28.03,46.19-43.96c11.1-15.36,20.42-31.93,27.8-49.39c1.56-3.34-0.37-3.15-2.06-0.22
		c-9.56,18.19-20.99,35.34-34.1,51.17"/>
	<path class="st0" d="M776.95,507.18c-14,10.25-26.26,19.16-38.84,30.34c-5.9,5.23-10.76,11.53-14.33,18.56
		c-3.32,8.11-4.75,15.29-4.38,31.43c-0.39,6.27,2.8,7,3,0c0.09-2.64,0.49-7.12,1.03-12.12c0.94-13.4,7.9-25.66,18.92-33.34
		c47.83-36.68,95.37-65.45,123.05-113.92c1.23-1.88,1.06-3.7-0.29-2.75c-1.31,1.4-2.51,2.91-3.59,4.5
		c-10.91,15.06-31.53,35.49-49.37,50.91c-12.63,10.25-22.51,17.03-35.21,26.37"/>
	<path class="st0" d="M827.48,388.96c-13.68,15.48-28.21,30.18-43.54,44.03c-0.83,0.95,0.03,2.09,1.71,1.06
		c2.75-1.67,5.38-3.53,7.88-5.56c15.81-11.3,29.9-24.82,41.83-40.16c10.56-14.28,19.26-29.85,25.87-46.34
		c1-2.41-0.47-2.69-1.88-0.24c-13.61,24.83-18.19,31.21-31.86,47.21"/>
	<path class="st0" d="M843.88,414.55c-13.92,16.23-24.27,24.88-42.72,41.68c-0.51,0.37,0,1.93,1.3,1.1
		c3.55-2.19,6.99-4.57,10.29-7.13c20.18-15.34,28.5-23.1,39.96-38.65c8.28-11.96,15.3-24.73,20.97-38.12
		c1.73-3.88-0.05-4.04-1.76-1.1c-7.36,15.29-16.78,29.5-28.02,42.22"/>
	<path class="st0" d="M550.2,394.74c19.96,18.85,36.94,43.65,44.91,66.91c9.61,28.02,12.41,51.52,14.36,80.96
		c1.46,22.81,0.66,63.78-0.41,87.36c-0.05,0.93-1.68,6.85-2.51-0.95c-0.7-23.77-0.89-69.74-2.68-87.99
		c-1.82-25.93-7.08-51.51-15.65-76.06c-5.27-14.23-12.39-27.7-21.18-40.06c-8.66-13.81-17.07-21.51-30.97-34.57
		c-11.36-10.59-22.41-17.26-33.81-25.81c-1.69-1.31-0.5-2.92,2.53-0.91c8.51,5.58,14.39,8.01,23.54,14.05
		c7.66,5.19,14.97,10.89,21.87,17.05"/>
	<path class="st0" d="M455.21,355.75c21.5,22.7,45.72,42.67,72.1,59.46c0.93,1-0.44,2.08-1.28,1.65
		c-9.35-4.73-18.37-10.1-26.99-16.07c-36.23-25.18-57.9-44.62-84.37-95.57c-1.52-3.06-0.21-3.88,1.63-0.79
		c0.88,1.51,1.83,2.97,2.86,4.38C429.75,325.5,441.82,341.21,455.21,355.75"/>
	<path class="st0" d="M426.26,369c13.71,15.45,28.29,30.08,43.69,43.84c0.94,1.06-0.17,1.72-1.71,0.88
		c-0.96-0.56-2.47-1.22-4.17-2.31c-17.57-12.22-33.15-27.07-46.21-44.02c-11.06-15.36-20.35-31.92-27.68-49.37
		c-1.59-3.33,0.4-3.15,2.01-0.2C401.74,336.01,413.16,353.16,426.26,369"/>
	<path class="st0" d="M457.01,507.23c14,10.22,26.26,19.15,38.87,30.31c5.9,5.24,10.76,11.55,14.31,18.6
		c3.29,8.03,4.71,15.26,4.38,31.42c0.34,6.23-2.89,6.94-3.04,0.02c-0.04-2.66-0.52-7.16-0.98-12.15
		c-0.96-13.41-7.92-25.67-18.95-33.36c-47.87-36.68-95.39-65.4-123-113.89c-1.27-1.91-1.1-3.65,0.26-2.75
		c1.29,1.42,2.49,2.92,3.59,4.5c10.91,15.01,31.5,35.51,49.33,50.89c12.65,10.26,22.56,17.07,35.23,26.38"/>
	<path class="st0" d="M406.49,389.08c13.68,15.47,28.23,30.14,43.58,43.95c0.77,0.97-0.12,2.09-1.75,1.03
		c-2.74-1.65-5.37-3.48-7.87-5.48c-15.81-11.32-29.92-24.85-41.9-40.16c-10.56-14.28-19.23-29.85-25.8-46.35
		c-1.03-2.42,0.45-2.7,1.88-0.26C388.22,366.66,392.75,373.01,406.49,389.08"/>
	<path class="st0" d="M390.09,414.61c13.94,16.22,24.25,24.93,42.72,41.71c0.46,0.37,0,1.89-1.3,1.04
		c-3.58-2.14-7.03-4.5-10.32-7.06c-20.22-15.39-28.48-23.12-39.94-38.7c-8.3-11.93-15.33-24.69-20.98-38.08
		c-1.76-3.87,0.1-4.02,1.75-1.1c7.34,15.31,16.79,29.52,28.06,42.22"/>
</g>
</svg>
