<?xml version="1.0" encoding="utf-8"?>
<!-- Generator: Adobe Illustrator 25.4.1, SVG Export Plug-In . SVG Version: 6.00 Build 0)  -->
<svg version="1.1" id="Layer_1" xmlns="http://www.w3.org/2000/svg" xmlns:xlink="http://www.w3.org/1999/xlink" x="0px" y="0px"
	 viewBox="0 0 1233 867" style="enable-background:new 0 0 1233 867;" xml:space="preserve">
<style type="text/css">
	.st0{fill:#FFFFFF;}
	.st1{fill:#E9463A;}
</style>
<rect class="st0" width="1233" height="867"/>
<g id="Layer_1-2">
	<rect x="373.14" y="147.14" class="st1" width="486.73" height="486.73"/>
	<rect x="432.93" y="206.93" class="st1" width="367.14" height="367.14"/>
	<path class="st0" d="M544.67,450.94c-0.68,0.24-1.42,0.47-2.2,0.64c-0.78,0.2-1.62,0.34-2.47,0.47c-0.84,0.14-1.69,0.2-2.47,0.2
		c-1.93,0-3.68-0.27-5.27-0.85c-1.59-0.57-2.94-1.45-4.06-2.64c-1.12-1.18-1.99-2.67-2.64-4.53c-0.61-1.83-0.91-3.99-0.91-6.46
		c0-2.16,0.3-4.12,0.95-5.88c0.64-1.76,1.55-3.24,2.74-4.53c1.18-1.25,2.6-2.23,4.29-2.91c1.69-0.68,3.55-1.01,5.64-1.01
		c1.12,0,2.3,0.17,3.62,0.47c1.32,0.34,2.54,0.78,3.62,1.32l-1.99,4.23c-1.18-0.44-2.2-0.78-3.01-0.98c-0.85-0.2-1.62-0.3-2.37-0.3
		c-0.78,0-1.62,0.14-2.5,0.44c-0.88,0.27-1.69,0.78-2.43,1.49c-0.74,0.71-1.35,1.66-1.83,2.84s-0.71,2.7-0.71,4.5
		c0,1.96,0.17,3.62,0.54,4.93c0.37,1.32,0.84,2.37,1.49,3.14c0.61,0.78,1.35,1.32,2.2,1.66c0.84,0.34,1.76,0.51,2.74,0.51
		c0.64,0,1.18,0,1.66-0.07c0.47-0.03,0.95-0.1,1.39-0.17v-9.3h5.75v12.03c-0.47,0.24-1.05,0.47-1.72,0.68"/>
	<path class="st0" d="M577.26,429.81c-0.61-0.74-1.55-1.12-2.91-1.12h-2.13v7.17h2.13c1.18,0,2.13-0.27,2.81-0.85
		c0.68-0.57,0.98-1.42,0.98-2.57c0-1.01-0.3-1.89-0.91-2.64 M574.52,440.32h-2.33v11.26h-5.88v-27.34h8.01
		c1.62,0,3.04,0.2,4.26,0.64c1.22,0.44,2.23,1.01,3.08,1.72c0.81,0.71,1.42,1.55,1.86,2.54c0.41,0.98,0.61,1.99,0.61,3.04
		c0,0.88-0.14,1.69-0.44,2.43c-0.27,0.71-0.64,1.39-1.08,1.93c-0.44,0.57-0.91,1.08-1.42,1.49c-0.51,0.41-1.01,0.74-1.49,1.05
		l6.35,12.2l-6.59,0.74l-4.93-11.66V440.32z"/>
	<path class="st0" d="M620.52,435.32c-0.1-1.18-0.37-2.3-0.78-3.35c-0.41-1.05-1.01-1.93-1.83-2.64s-1.93-1.08-3.31-1.08
		c-1.25,0-2.23,0.3-2.94,0.91c-0.71,0.61-1.28,1.35-1.66,2.23c-0.37,0.88-0.64,1.83-0.74,2.84c-0.1,1.01-0.17,1.96-0.17,2.81
		c0,0.95,0.07,2.03,0.17,3.24c0.1,1.22,0.37,2.37,0.78,3.41s1.01,1.96,1.83,2.7c0.78,0.71,1.89,1.08,3.28,1.08
		c1.25,0,2.23-0.3,2.97-0.91c0.74-0.61,1.32-1.39,1.69-2.26c0.37-0.91,0.64-1.89,0.74-2.91c0.1-1.05,0.17-1.99,0.17-2.84
		c0-0.95-0.07-2.03-0.17-3.21 M626,443.67c-0.61,1.76-1.42,3.28-2.5,4.56c-1.05,1.28-2.33,2.26-3.79,2.97s-3.04,1.05-4.8,1.05
		c-2.1,0-3.89-0.41-5.37-1.22c-1.49-0.81-2.7-1.86-3.72-3.21c-0.98-1.32-1.69-2.87-2.16-4.6s-0.68-3.52-0.68-5.37
		c0-2.1,0.27-4.02,0.88-5.81c0.57-1.79,1.42-3.31,2.47-4.6c1.05-1.28,2.3-2.26,3.79-3.01c1.45-0.71,3.04-1.08,4.8-1.08
		c2.1,0,3.89,0.41,5.41,1.22c1.49,0.81,2.74,1.89,3.72,3.24s1.69,2.91,2.16,4.63c0.47,1.76,0.71,3.58,0.71,5.44
		C626.91,439.98,626.61,441.91,626,443.67"/>
	<path class="st0" d="M667.1,446.64c-0.61,1.22-1.42,2.2-2.43,3.01s-2.13,1.42-3.41,1.86c-1.28,0.44-2.6,0.64-3.92,0.64
		c-1.55,0-2.97-0.24-4.29-0.68c-1.32-0.47-2.43-1.12-3.38-1.96c-0.95-0.85-1.69-1.86-2.23-3.04c-0.54-1.18-0.81-2.54-0.81-4.02
		v-18.22h5.88v18.39c0,1.25,0.44,2.37,1.28,3.35s2.06,1.45,3.55,1.45s2.67-0.47,3.52-1.39c0.85-0.91,1.28-2.1,1.28-3.52v-18.29h5.88
		v18.22C668.01,444.04,667.71,445.43,667.1,446.64"/>
	<path class="st0" d="M701.04,429.74c-0.64-0.64-1.69-0.98-3.11-0.98h-1.89v8.42h1.42c1.55,0,2.7-0.41,3.45-1.18
		s1.12-1.89,1.12-3.28S701.68,430.38,701.04,429.74 M707.39,436.23c-0.51,1.15-1.22,2.1-2.13,2.91c-0.91,0.81-2.03,1.42-3.31,1.86
		c-1.28,0.44-2.7,0.68-4.26,0.68h-1.66v9.87h-5.88V424.2h7.77c3.14,0,5.61,0.71,7.47,2.13c1.83,1.42,2.74,3.41,2.74,6.05
		C708.13,433.8,707.86,435.08,707.39,436.23"/>
	<path class="st0" d="M707.56,329.32h-36.1c-0.47,0-0.85,0.37-0.85,0.81v60.84c0,0.47,0.37,0.85,0.85,0.85h11.8
		c0.47,0,0.81-0.37,0.81-0.85v-25.22h19.47c0.47,0,0.85-0.37,0.85-0.85v-9.19c0-0.47-0.37-0.85-0.85-0.85h-19.47V340.1h23.49
		c0.47,0,0.85-0.37,0.85-0.85v-9.19c0-0.47-0.37-0.81-0.85-0.81"/>
	<path class="st0" d="M646.41,329.32h-13.49c-0.37,0-0.68,0.24-0.78,0.57l-13.79,43.16l-13.82-43.16c-0.1-0.34-0.44-0.57-0.78-0.57
		h-13.82c-0.44,0-0.78,0.34-0.85,0.78l-4.66,60.84c0,0.24,0.07,0.47,0.2,0.64c0.17,0.17,0.37,0.27,0.61,0.27h11.49
		c0.44,0,0.81-0.34,0.85-0.78l2.1-38.16l12.17,38.36c0.1,0.34,0.44,0.57,0.78,0.57h10.31c0.37,0,0.68-0.24,0.78-0.57l12.4-38.26
		l1.89,38.06c0,0.44,0.37,0.78,0.85,0.78h11.8c0.24,0,0.44-0.1,0.61-0.27c0.17-0.17,0.24-0.41,0.24-0.61l-4.23-60.84
		c0-0.44-0.37-0.78-0.81-0.78"/>
	<path class="st0" d="M574.22,329.32h-48.81c-0.47,0-0.81,0.37-0.81,0.81v9.53c0,0.47,0.37,0.85,0.81,0.85h17.51v50.5
		c0,0.47,0.37,0.85,0.85,0.85h11.8c0.47,0,0.81-0.37,0.81-0.85v-50.5h17.85c0.47,0,0.85-0.37,0.85-0.85v-9.53
		C575.06,329.66,574.69,329.32,574.22,329.32"/>
</g>
</svg>
