<?xml version="1.0" encoding="utf-8"?>
<!-- Generator: Adobe Illustrator 25.4.1, SVG Export Plug-In . SVG Version: 6.00 Build 0)  -->
<svg version="1.1" id="Layer_1" xmlns="http://www.w3.org/2000/svg" xmlns:xlink="http://www.w3.org/1999/xlink" x="0px" y="0px"
	 viewBox="0 0 1233 867" style="enable-background:new 0 0 1233 867;" xml:space="preserve">
<style type="text/css">
	.st0{fill:#FFFFFF;}
	.st1{fill-rule:evenodd;clip-rule:evenodd;fill:#FFFFFF;}
	.st2{filter:url(#Adobe_OpacityMaskFilter);}
	.st3{mask:url(#mask-2_00000097478872332178887010000005152185632755405719_);fill-rule:evenodd;clip-rule:evenodd;fill:#CF2A2B;}
	.st4{filter:url(#Adobe_OpacityMaskFilter_00000028327152781768071370000009593174362857026231_);}
	.st5{mask:url(#mask-2_00000085215010067307321620000000383763818008599987_);fill-rule:evenodd;clip-rule:evenodd;fill:#E06E2B;}
	.st6{filter:url(#Adobe_OpacityMaskFilter_00000158735339019976192110000017663993428334785158_);}
	.st7{mask:url(#mask-2_00000179607960509064702250000006593430940005317517_);fill-rule:evenodd;clip-rule:evenodd;fill:#4D2B6C;}
	.st8{filter:url(#Adobe_OpacityMaskFilter_00000036957174570388485780000007827337528425723293_);}
	.st9{mask:url(#mask-2_00000017517778745753710090000010597569575100795825_);fill-rule:evenodd;clip-rule:evenodd;fill:#0095C8;}
	.st10{filter:url(#Adobe_OpacityMaskFilter_00000025440203488262392810000006883154571727437983_);}
	.st11{mask:url(#mask-2_00000175318044078849896350000015299888690838570649_);fill-rule:evenodd;clip-rule:evenodd;fill:#7AB642;}
	.st12{filter:url(#Adobe_OpacityMaskFilter_00000033366395213267725140000006598757765521556654_);}
	.st13{mask:url(#mask-2_00000165920421006896718060000016784056248861840317_);fill-rule:evenodd;clip-rule:evenodd;fill:#FAC922;}
	.st14{fill-rule:evenodd;clip-rule:evenodd;fill:#1A1919;}
</style>
<rect class="st0" width="1233" height="867"/>
<g id="Page-1">
	<g id="TPM" transform="translate(-104.000000, -16.000000)">
		<g id="Logo" transform="translate(104.000000, 16.000000)">
			<circle id="Oval" class="st1" cx="623.09" cy="413.74" r="363"/>
			
				<g id="Center-for-Education-and-Workforce---023458_FOUND_TPM_Academy_logo_update_R_mark" transform="translate(2.000000, 9.000000)">
				<g id="Group-6" transform="translate(0.807018, 0.000000)">
					<defs>
						<filter id="Adobe_OpacityMaskFilter" filterUnits="userSpaceOnUse" x="647.8" y="83.39" width="238.7" height="169.74">
							<feColorMatrix  type="matrix" values="1 0 0 0 0  0 1 0 0 0  0 0 1 0 0  0 0 0 1 0"/>
						</filter>
					</defs>
					
						<mask maskUnits="userSpaceOnUse" x="647.8" y="83.39" width="238.7" height="169.74" id="mask-2_00000097478872332178887010000005152185632755405719_">
						<g class="st2">
							<polygon id="path-1_00000064329704539007452730000014891634789067635113_" class="st1" points="269.64,83.39 943.68,83.39 
								943.68,723.52 269.64,723.52 							"/>
						</g>
					</mask>
					<path id="Fill-1" class="st3" d="M830.59,253.13l55.91-32.37c-53.48-77-139.77-129.55-238.7-137.37v64.5
						C722.97,155.35,788.58,195.16,830.59,253.13"/>
					<defs>
						
							<filter id="Adobe_OpacityMaskFilter_00000050638623698967286810000008325060835588369587_" filterUnits="userSpaceOnUse" x="357.64" y="554" width="238.7" height="169.74">
							<feColorMatrix  type="matrix" values="1 0 0 0 0  0 1 0 0 0  0 0 1 0 0  0 0 0 1 0"/>
						</filter>
					</defs>
					
						<mask maskUnits="userSpaceOnUse" x="357.64" y="554" width="238.7" height="169.74" id="mask-2_00000085215010067307321620000000383763818008599987_">
						<g style="filter:url(#Adobe_OpacityMaskFilter_00000050638623698967286810000008325060835588369587_);">
							<polygon id="path-1_00000120544945641354255400000008200126215759411390_" class="st1" points="269.64,83.39 943.68,83.39 
								943.68,723.52 269.64,723.52 							"/>
						</g>
					</mask>
					<path id="Fill-3" class="st5" d="M413.55,554l-55.91,32.37c53.48,77,139.77,129.55,238.7,137.36v-64.5
						C521.17,651.79,455.56,611.98,413.55,554"/>
					<defs>
						
							<filter id="Adobe_OpacityMaskFilter_00000015325636288211599150000007439032322190386331_" filterUnits="userSpaceOnUse" x="856.48" y="265.22" width="87.2" height="276.69">
							<feColorMatrix  type="matrix" values="1 0 0 0 0  0 1 0 0 0  0 0 1 0 0  0 0 0 1 0"/>
						</filter>
					</defs>
					
						<mask maskUnits="userSpaceOnUse" x="856.48" y="265.22" width="87.2" height="276.69" id="mask-2_00000179607960509064702250000006593430940005317517_">
						<g style="filter:url(#Adobe_OpacityMaskFilter_00000015325636288211599150000007439032322190386331_);">
							<polygon id="path-1_00000145757714653830511770000004263194049753079697_" class="st1" points="269.64,83.39 943.68,83.39 
								943.68,723.52 269.64,723.52 							"/>
						</g>
					</mask>
					<path id="Fill-4" class="st7" d="M856.48,509.59l55.82,32.33c20.06-41.91,31.37-88.8,31.37-138.35s-11.31-96.44-31.37-138.35
						l-55.82,32.33c14.68,32.32,22.87,68.21,22.87,106.02S871.16,477.26,856.48,509.59"/>
					<defs>
						
							<filter id="Adobe_OpacityMaskFilter_00000052815509918625698460000006431681591666649276_" filterUnits="userSpaceOnUse" x="647.8" y="554" width="238.7" height="169.74">
							<feColorMatrix  type="matrix" values="1 0 0 0 0  0 1 0 0 0  0 0 1 0 0  0 0 0 1 0"/>
						</filter>
					</defs>
					
						<mask maskUnits="userSpaceOnUse" x="647.8" y="554" width="238.7" height="169.74" id="mask-2_00000017517778745753710090000010597569575100795825_">
						<g style="filter:url(#Adobe_OpacityMaskFilter_00000052815509918625698460000006431681591666649276_);">
							<polygon id="path-1_00000117663014976295722540000000730477435448309674_" class="st1" points="269.64,83.39 943.68,83.39 
								943.68,723.52 269.64,723.52 							"/>
						</g>
					</mask>
					<path id="Fill-5" class="st9" d="M830.59,554c-42.01,57.98-107.62,97.79-182.79,105.24v64.5
						c98.93-7.82,185.22-60.36,238.7-137.36L830.59,554"/>
					<defs>
						
							<filter id="Adobe_OpacityMaskFilter_00000030480486986656799420000012333658123859905959_" filterUnits="userSpaceOnUse" x="357.64" y="81.35" width="236.67" height="169.05">
							<feColorMatrix  type="matrix" values="1 0 0 0 0  0 1 0 0 0  0 0 1 0 0  0 0 0 1 0"/>
						</filter>
					</defs>
					
						<mask maskUnits="userSpaceOnUse" x="357.64" y="81.35" width="236.67" height="169.05" id="mask-2_00000175318044078849896350000015299888690838570649_">
						<g style="filter:url(#Adobe_OpacityMaskFilter_00000030480486986656799420000012333658123859905959_);">
							<polygon id="path-1_00000004509886621968858120000010297012085779329162_" class="st1" points="269.64,83.39 943.68,83.39 
								943.68,723.52 269.64,723.52 							"/>
						</g>
					</mask>
					<path id="Fill-7" class="st11" d="M413.07,250.4c41.66-57.74,106.71-97.39,181.24-104.82V81.35
						c-98.09,7.79-183.65,60.12-236.67,136.81L413.07,250.4"/>
					<defs>
						
							<filter id="Adobe_OpacityMaskFilter_00000066509167183646731860000007802325947820037009_" filterUnits="userSpaceOnUse" x="301.29" y="267.3" width="84.53" height="276.12">
							<feColorMatrix  type="matrix" values="1 0 0 0 0  0 1 0 0 0  0 0 1 0 0  0 0 0 1 0"/>
						</filter>
					</defs>
					
						<mask maskUnits="userSpaceOnUse" x="301.29" y="267.3" width="84.53" height="276.12" id="mask-2_00000165920421006896718060000016784056248861840317_">
						<g style="filter:url(#Adobe_OpacityMaskFilter_00000066509167183646731860000007802325947820037009_);">
							<polygon id="path-1_00000082365311840561134140000001257454353844962962_" class="st1" points="269.64,83.39 943.68,83.39 
								943.68,723.52 269.64,723.52 							"/>
						</g>
					</mask>
					<path id="Fill-8" class="st13" d="M385.81,299.56L331.7,267.3c-19.45,41.82-30.41,88.61-30.41,138.06s10.96,96.24,30.41,138.06
						l54.11-32.26c-14.23-32.26-22.17-68.07-22.17-105.8S371.58,331.82,385.81,299.56"/>
				</g>
				<g id="TPM-Logo-Small" transform="translate(43.000000, 51.000000)">
					<polyline id="Fill-9" class="st14" points="445.74,284 416.87,284 416.87,255.75 507.03,255.75 507.03,284 478.33,284 
						478.33,362.81 445.74,362.81 445.74,284 					"/>
					<path id="Fill-10" class="st14" d="M565.71,282.71h-20.58v18.78h20.58c5.47,0,9.81-3.7,9.81-9.31
						C575.52,286.41,571.18,282.71,565.71,282.71z M512.67,255.75h57.22c25.08,0,38.58,16.69,38.58,36.76
						c0,19.9-13.49,35.95-38.58,35.95h-24.75v34.35h-32.46V255.75z"/>
					<polyline id="Fill-11" class="st14" points="712.09,295.24 688.77,362.81 674.67,362.81 651.35,295.24 651.35,362.81 
						619.73,362.81 619.73,255.75 663.41,255.75 681.72,310.32 700.03,255.75 743.7,255.75 743.7,362.81 712.09,362.81 
						712.09,295.24 					"/>
					<path id="Fill-12" class="st14" d="M446.29,430.46h22.9l-5.07-27.98L446.29,430.46z M469.82,436.09h-26.86l-7.21,11.25h-7.61
						l32.89-50.72h8.16l9.67,50.72h-6.97L469.82,436.09z"/>
					<path id="Fill-13" class="st14" d="M504.8,407.89c6.64,0,11.04,2.73,13.51,7l-4.26,3.35c-1.87-3.42-5.37-5.13-9.1-5.13
						c-9.03,0-14.62,8.32-14.62,17.35c0,7.7,4.93,11.67,11.27,11.67c3.73,0,6.94-1.87,9.1-4.44l3.21,3.89
						c-3.06,3.27-7.09,5.76-12.83,5.76c-9.7,0-16.57-6.3-16.57-16.8C484.49,418.16,493.38,407.89,504.8,407.89"/>
					<path id="Fill-14" class="st14" d="M534.76,442.13c4.61,0,8.92-2.88,11.3-6.38l3.69-16.57c-1.84-3.35-5.84-6.07-11.22-6.07
						c-8.46,0-14.15,8.64-14.15,17.66C524.38,437.77,528.54,442.13,534.76,442.13z M551.98,408.83h5.77l-8.23,37.58h-5.77l1.16-5.37
						c-3.08,3.89-7.23,6.3-12.23,6.3c-8.53,0-14.38-5.68-14.38-15.48c0-12.21,7.46-23.96,19.45-23.96c5.77,0,10.46,2.73,12.92,6.85
						L551.98,408.83z"/>
					<path id="Fill-15" class="st14" d="M580.8,442.34c4.88,0,9.44-2.76,11.96-6.13l3.91-15.91c-1.95-3.21-6.18-5.83-11.87-5.83
						c-8.95,0-14.97,8.29-14.97,16.95C569.81,438.15,574.21,442.34,580.8,442.34z M602.36,396.62h6.11l-12.04,49.82h-6.1l1.22-5.15
						c-3.25,3.73-7.65,6.05-12.94,6.05c-9.03,0-15.22-5.45-15.22-14.86c0-11.73,7.9-23,20.59-23c6.1,0,11.07,2.62,13.67,6.57
						L602.36,396.62z"/>
					<path id="Fill-16" class="st14" d="M636.69,423.77c0-6.23-4.2-11.05-12.08-11.05c-7.31,0-13.47,5.83-14.71,12.53h26.63
						C636.6,424.93,636.69,424.15,636.69,423.77z M625.18,407.89c10.44,0,17.1,6.85,17.1,16.42c0,1.79-0.42,4.12-0.66,5.21h-32.37
						c0,0.31-0.08,1.25-0.08,1.79c0,5.84,4.52,11.2,13.48,11.2c3.86,0,8.22-1.24,11.42-3.65l2.06,4.05
						c-3.53,2.64-8.79,4.43-13.89,4.43c-12.08,0-19.39-6.61-19.39-16.65C602.83,418.24,612.61,407.89,625.18,407.89z"/>
					<path id="Fill-17" class="st14" d="M697.91,421.52c0.08-0.4,0.31-1.35,0.31-2.31c0-3.83-2.9-5.98-6.27-5.98
						c-3.59,0-7.49,2.87-10.09,6.06l-5.96,28.05h-5.74l5.51-25.82c0.15-1.04,0.31-1.59,0.31-2.79c-0.08-3.03-2.22-5.5-6.42-5.5
						c-3.52,0-7.34,2.95-9.94,6.06l-5.96,28.05h-5.74l8.18-38.49h5.74l-1.22,5.58c2.07-2.47,6.35-6.53,11.62-6.53
						c6.58,0,9.49,4.86,9.49,7.17v0.16c2.98-3.83,7.49-7.33,12.84-7.33c5.12,0,9.71,3.35,9.71,9.56c0,0.88-0.23,2.23-0.38,3.19
						l-5.66,26.7h-5.73L697.91,421.52"/>
					<path id="Fill-18" class="st14" d="M704.24,459.01c2.08,0,3.61-0.82,5.54-3.59l3.77-5.6l-7.08-36.3h6.08l5.54,29.57
						l19.16-29.57h6.46l-28.62,43.4c-3.31,5-6.77,7.32-11.62,7.32c-1.69,0-3.53-0.3-4.84-0.82l2-5
						C701.47,458.79,702.85,459.01,704.24,459.01"/>
				</g>
				<path id="Fill-19" class="st1" d="M913.39,95.7v10.52h7.9c2.5,0,5.26-2.15,5.26-5.14c0-3.23-2.75-5.38-5.26-5.38H913.39z
					 M918.53,109.81h-5.14v11.48h-3.95V92.23h11.84c4.9,0,9.32,3.47,9.32,8.85c0,6.46-5.74,8.61-7.41,8.61l7.77,11.6h-4.9
					L918.53,109.81z M897.35,106.7c0,11.96,9.69,21.77,21.77,21.77c11.97,0,21.65-9.81,21.65-21.77c0-12.08-9.68-21.65-21.65-21.65
					C907.04,85.05,897.35,94.62,897.35,106.7z M893.77,106.7c0-14.11,11.36-25.35,25.35-25.35c14.12,0,25.36,11.25,25.36,25.35
					c0,14-11.24,25.36-25.36,25.36C905.13,132.06,893.77,120.7,893.77,106.7z"/>
			</g>
		</g>
	</g>
</g>
</svg>
